<svg width="141" height="141" viewBox="0 0 141 141" fill="none" xmlns="http://www.w3.org/2000/svg">
<path d="M70.4999 140.194C108.991 140.194 140.194 108.991 140.194 70.5C140.194 32.0092 108.991 0.806244 70.4999 0.806244C32.0091 0.806244 0.806152 32.0092 0.806152 70.5C0.806152 108.991 32.0091 140.194 70.4999 140.194Z" fill="white"/>
<path d="M70.4999 133.412C105.246 133.412 133.412 105.246 133.412 70.5C133.412 35.7544 105.246 7.58749 70.4999 7.58749C35.7543 7.58749 7.5874 35.7544 7.5874 70.5C7.5874 105.246 35.7543 133.412 70.4999 133.412Z" fill="#F56C21"/>
<path d="M70.5 114.075C94.5658 114.075 114.075 94.5658 114.075 70.5C114.075 46.4342 94.5658 26.925 70.5 26.925C46.4342 26.925 26.925 46.4342 26.925 70.5C26.925 94.5658 46.4342 114.075 70.5 114.075Z" fill="white"/>
<path d="M44.5353 72.25L41.9855 74.9082V79.7094H37.6184V60.7219H41.9855V69.5874L50.3943 60.7175H55.275L47.4088 69.1805L55.7362 79.705H50.6113L44.5353 72.25Z" fill="black"/>
<path d="M73.6947 79.705L70.0328 74.4156H65.9912V79.705H61.5969V60.7175H69.8158C71.4975 60.7175 72.9576 60.9978 74.196 61.5584C75.4345 62.119 76.39 62.9146 77.0625 63.9454C77.7311 64.9761 78.0656 66.1967 78.0662 67.6072C78.0668 69.0177 77.7275 70.2337 77.0485 71.2551C76.3707 72.2771 75.4082 73.0594 74.161 73.6019L78.4197 79.705H73.6947ZM72.5825 65.152C71.8948 64.5827 70.8912 64.298 69.5717 64.298H65.9912V70.9165H69.5717C70.8912 70.9165 71.8948 70.6272 72.5825 70.0485C73.2703 69.4698 73.6139 68.6561 73.6133 67.6072C73.6133 66.5409 73.2697 65.7225 72.5825 65.152Z" fill="black"/>
<path d="M102.853 60.7175V79.705H98.459V71.9175H89.8376V79.705H85.4434V60.7175H89.8376V68.204H98.4634V60.7175H102.853Z" fill="black"/>
</svg>
